<svg width="19" height="23" viewBox="0 0 19 23" fill="none" xmlns="http://www.w3.org/2000/svg">
<path d="M15.269 12.3011C15.2907 10.6201 16.1934 9.02947 17.6256 8.149C16.7221 6.85868 15.2088 6.04058 13.6344 5.99132C11.9552 5.81506 10.3272 6.99615 9.47149 6.99615C8.59922 6.99615 7.28172 6.00882 5.86299 6.03801C4.01374 6.09776 2.28977 7.14914 1.39007 8.76588C-0.543928 12.1143 0.898662 17.0354 2.75127 19.742C3.67817 21.0673 4.76145 22.5478 6.1789 22.4953C7.56596 22.4377 8.084 21.6108 9.7583 21.6108C11.4171 21.6108 11.9031 22.4953 13.3493 22.4619C14.8377 22.4377 15.7754 21.1306 16.6698 19.7927C17.3358 18.8484 17.8483 17.8047 18.1882 16.7002C16.4391 15.9604 15.271 14.2002 15.269 12.3011Z" fill="white"/>
<path d="M12.5373 4.21132C13.3489 3.23711 13.7487 1.98494 13.6518 0.720703C12.412 0.850924 11.2668 1.44348 10.4443 2.38031C9.63998 3.29564 9.22143 4.52579 9.30056 5.7417C10.5408 5.75447 11.7601 5.17798 12.5373 4.21132Z" fill="white"/>
</svg>
